<svg width="87" height="73" viewBox="0 0 87 73" fill="none" xmlns="http://www.w3.org/2000/svg">
<rect x="8.06306" y="19.8255" width="9.44083" height="5.84432" rx="0.899127" transform="rotate(-7.22144 8.06306 19.8255)" fill="#D1DCFF" stroke="#D1DCFF" stroke-width="0.899127"/>
<path d="M29.1874 11.7084L52.0214 8.81507C54.549 8.4948 56.9067 10.1481 57.4675 12.6334L58.6463 17.8587C58.7631 18.3763 58.4082 18.8821 57.8818 18.9488L26.0397 22.9835C25.5134 23.0501 25.0444 22.6487 25.0284 22.1184L24.8668 16.7642C24.7899 14.2177 26.66 12.0288 29.1874 11.7084Z" fill="#D1DCFF" stroke="#D1DCFF" stroke-width="0.899127"/>
<rect x="1.70898" y="23.3481" width="78.6736" height="49.9015" rx="2.69738" transform="rotate(-7.22144 1.70898 23.3481)" fill="#4775FF"/>
<path d="M2.86523 32.4927L80.9151 22.603" stroke="#D1DCFF" stroke-width="0.899127"/>
<path d="M6.9043 64.3813L84.9538 54.4917" stroke="#D1DCFF" stroke-width="0.899127"/>
<circle cx="44.1185" cy="43.352" r="21.579" transform="rotate(-7.22144 44.1185 43.352)" fill="#D1DCFF"/>
<circle cx="44.1174" cy="43.3507" r="14.386" transform="rotate(-7.22144 44.1174 43.3507)" fill="#4775FF"/>
<rect x="64.9381" y="21.6829" width="10.7895" height="5.84432" rx="0.899127" transform="rotate(-7.22144 64.9381 21.6829)" fill="#4775FF" stroke="#D1DCFF" stroke-width="0.899127"/>
<path d="M54.3379 3.0055L55.6793 8.81479L61.6395 8.66485L55.8302 10.0062L55.9802 15.9665L54.6388 10.1572L48.6786 10.3071L54.4878 8.96576L54.3379 3.0055Z" fill="#1952FF"/>
</svg>
